<?xml version="1.0" encoding="UTF-8" standalone="no"?>
<!-- Created with Inkscape (http://www.inkscape.org/) -->
<svg
   xmlns:svg="http://www.w3.org/2000/svg"
   xmlns="http://www.w3.org/2000/svg"
   version="1.0"
   width="200"
   height="132"
   id="svg2">
  <defs
     id="defs89" />
  <g
     transform="matrix(1.3883002,0,0,1.3883002,126.05595,70.656885)"
     style="fill:#006633;fill-rule:nonzero;stroke:none;stroke-width:1pt;stroke-linecap:butt;stroke-linejoin:miter;stroke-dasharray:none"
     id="g4">
    <path
       d="M 13.2323,0 C 4.9493,0 0,6.8711 0,13.5146 C 0,20.1592 4.9493,27.0312 13.2323,27.0312 C 21.5523,27.0312 26.5243,20.1592 26.5243,13.5146 C 26.5243,6.8711 21.5523,0 13.2323,0 z M 18.6973,13.5146 C 18.6973,17.2373 17.9873,23.4805 13.2323,23.4805 C 8.7653,23.4805 7.8282,18.0605 7.8282,13.5146 C 7.8282,8.9668 8.7653,3.5459 13.2323,3.5459 C 17.9873,3.5459 18.6973,9.792 18.6973,13.5146 z "
       id="path6" />
  </g>
  <g
     transform="matrix(1.3883002,0,0,1.3883002,161.56213,71.671036)"
     style="fill:#006633;fill-rule:nonzero;stroke:none;stroke-width:1pt;stroke-linecap:butt;stroke-linejoin:miter;stroke-dasharray:none"
     id="g8">
    <path
       d="M 27.416,0 C 27.416,0 16.33,0 16.33,0 C 16.33,0 19.805,3.4746 19.87,3.539 C 19.87,3.6289 19.87,13.0957 19.87,13.6992 C 19.483,13.2119 8.998,0 8.998,0 C 8.998,0 0,0 0,0 C 0,0 3.472,3.4746 3.537,3.539 C 3.537,3.6308 3.537,21.9355 3.537,22.0283 C 3.473,22.0927 0,25.5693 0,25.5693 C 0,25.5693 11.3,25.5693 11.3,25.5693 C 11.3,25.5693 7.826,22.0927 7.762,22.0283 C 7.762,21.9375 7.762,9.0761 7.762,8.4795 C 8.15,8.9511 24.13,28.3398 24.13,28.3398 C 24.13,28.3398 24.149,3.6318 24.149,3.539 C 24.214,3.4746 27.687,0 27.687,0 C 27.687,0 27.416,0 27.416,0 z "
       id="path10" />
  </g>
  <g
     transform="matrix(1.3883002,0,0,1.3883002,48.067242,-4.4034396e-6)"
     style="fill:#FFCC33;fill-rule:nonzero;stroke:none;stroke-width:1pt;stroke-linecap:butt;stroke-linejoin:miter;stroke-dasharray:none"
     id="g12">
    <path
       d="M 32.2441,11.124 C 32.2441,11.124 38.3828,0 38.3828,0 C 36.9248,1.36719 36.1904,1.79688 34.8369,2.72656 C 27.413,7.82129 18.2793,9.0332 9.1005,16.5839 C 2.874,21.706 0,29.1308 0,29.1308 C 0,29.1308 8.3574,19.7441 20.9951,15.0625 C 26.0927,13.1728 29.6484,12.1357 32.2441,11.124 z "
       id="path14" />
  </g>
  <g
     transform="matrix(1.3883002,0,0,1.3883002,42.90721,23.685145)"
     style="fill:#006633;fill-rule:nonzero;stroke:none;stroke-width:1pt;stroke-linecap:butt;stroke-linejoin:miter;stroke-dasharray:none"
     id="g16">
    <path
       d="M 32.6875,0 C 26.0361,2.1211 18.1123,4.1397 9.9951,9.6172 C 3.6718,13.8848 0,21.165 0,21.165 C 0,21.165 8.914,12.2481 21.875,9.2051 C 24.4824,8.5938 26.6718,8.082 28.5058,7.6563 C 28.5058,7.6563 32.6875,0 32.6875,0 z "
       id="path18" />
  </g>
  <g
     transform="matrix(1.3883002,0,0,1.3883002,0,42.848815)"
     style="fill:#006633;fill-rule:nonzero;stroke:none;stroke-width:1pt;stroke-linecap:butt;stroke-linejoin:miter;stroke-dasharray:none"
     id="g20">
    <path
       d="M 85.7998,32.6572 C 85.7998,32.6572 79.0967,29.0528 79.0967,29.0528 C 77.3565,28.042 76.7354,26.8115 76.7354,25.9981 C 76.7119,25.6104 76.9443,25.1104 77.3438,24.6856 C 77.9727,24.0156 78.9004,23.6319 79.8897,23.6319 C 80.4092,23.6319 81.0205,23.794 81.7578,24.1289 C 81.7578,24.1387 85.2188,27.541 85.2188,27.541 C 85.2188,27.541 85.3174,27.6387 85.3174,27.6387 C 85.3174,27.6387 89.0869,21.7442 89.0869,21.7442 C 89.0869,21.7442 82.2158,20.7627 82.2158,20.7627 C 81.3076,20.5928 80.251,20.5928 79.5508,20.5928 C 73.3223,20.5928 70.4844,24.3008 70.4844,27.7451 C 70.4844,29.7627 71.6982,32.5791 75.1045,34.4307 C 75.1055,34.4317 81.8076,38.0381 81.8076,38.0381 C 82.3926,38.4629 83.2119,39.0567 83.2119,40.4151 C 83.2119,42.8535 80.9893,43.7393 79.4951,43.7393 C 78.625,43.7393 77.8506,43.5176 77.1934,43.0821 C 77.1934,43.0781 73.3799,39.3213 73.3799,39.3213 C 73.3799,39.3213 73.2705,39.2139 73.2705,39.2139 C 73.2705,39.2139 70.1572,45.2783 70.1572,45.2783 C 70.1572,45.2783 68.0225,42.5996 68.0225,42.5996 C 68.0225,42.586 59.4229,20.8321 59.4229,20.8321 C 59.4229,20.8321 59.3945,20.7608 59.3945,20.7608 C 59.3945,20.7608 59.3184,20.7608 59.3184,20.7608 C 59.3184,20.7608 55.1318,20.7608 55.1318,20.7608 C 55.1318,20.7608 46.3193,42.627 46.3193,42.627 C 46.3164,42.626 45.0772,44.2031 44.2568,45.2461 C 44.2568,45.2461 41.4482,42.0264 41.4482,42.0264 C 41.4482,42.0264 41.4482,8.542 41.4482,8.542 C 50.4082,1.4404 56.2002,0 56.1856,0.001 C 53.001,0.2891 46.3486,0.8877 38.5703,5.2207 C 33.4531,8.0713 29.4141,11.9678 29.4141,11.9678 C 29.4141,11.9678 29.4053,11.9942 29.4053,11.9942 C 29.4053,11.9942 29.3994,11.9873 29.3994,11.9873 C 27.8809,14.8379 25.7744,19.5811 23.7119,24.6768 C 23.7119,24.6768 13.4512,5.9453 13.4512,5.9453 C 13.4512,5.9453 0,5.9453 0,5.9453 C 0,5.9453 4.30078,10.2481 4.30078,10.2481 C 4.30078,10.2481 4.30078,41.9336 4.30078,41.9336 C 4.30078,41.9336 0,46.2354 0,46.2354 C 0,46.2354 14.7119,46.2354 14.7119,46.2354 C 14.7119,46.2354 10.3408,41.9336 10.3408,41.9336 C 10.3408,41.9336 10.3408,17.3516 10.3408,17.3516 C 10.3408,17.3516 19.9531,34.5518 19.9531,34.5518 C 18.5195,38.5928 17.3906,42.2041 16.9209,44.5244 C 16.9209,44.5244 20.0137,40.9326 20.0137,40.9326 C 20.0137,40.9326 22.5234,28.9776 32.416,17.2451 C 32.416,17.2451 32.416,42.3135 32.416,42.3135 C 32.416,42.3135 28.1143,46.3281 28.1143,46.3281 C 28.1143,46.3281 43.4082,46.3281 43.4082,46.3281 C 43.4082,46.3281 43.4063,46.3301 43.4063,46.3301 C 43.4063,46.3301 54.1289,46.3301 54.1289,46.3301 C 54.1289,46.3301 50.8232,43.0244 50.7217,42.9238 C 50.7744,42.794 52.0195,39.7022 52.0732,39.5694 C 52.2207,39.5694 59.6484,39.5694 59.8027,39.5694 C 59.8525,39.71 60.9473,42.7949 60.9922,42.9209 C 60.8945,43.0186 57.584,46.3301 57.584,46.3301 C 57.584,46.3301 70.3242,46.3301 70.3242,46.3301 C 72.1113,46.376 76.7246,46.4951 76.7305,46.4951 C 77.6455,46.6475 78.6406,46.7217 79.7744,46.7217 C 87.0518,46.7217 89.6328,42.4141 89.6328,38.7246 C 89.6328,35.0342 86.9522,33.252 85.7998,32.6572 z M 53.46,36.0772 C 53.5732,35.794 55.8037,30.2217 55.9971,29.7412 C 56.1816,30.2237 58.3164,35.7969 58.4238,36.0772 C 58.127,36.0772 53.7617,36.0772 53.46,36.0772 z "
       id="path22" />
  </g>
  <g
     transform="matrix(1.3883002,0,0,1.3883002,74.923484,49.047437)"
     style="fill:#006633;fill-rule:nonzero;stroke:none;stroke-width:1pt;stroke-linecap:butt;stroke-linejoin:miter;stroke-dasharray:none"
     id="g24">
    <path
       d="M 11.5674,11.8945 C 9.5332,12.4121 8.0166,12.4463 6.9131,12.4463 C 3.706,12.4463 0,10.8252 0,6.2754 C 0,1.7412 3.1885,0 7.6015,0 C 8.3955,0 10.0674,0.0859 11.2392,0.5341 C 11.2392,0.5341 10.9804,3.1543 10.9804,3.1543 C 9.9804,2.5683 8.8096,2.3789 8.0508,2.3789 C 5.4472,2.3789 3.3096,3.4648 3.3096,6.2754 C 3.3096,8.6367 4.9814,10.0673 7.3262,10.0673 C 7.7578,10.0673 8.1709,9.998 8.4638,9.8603 C 8.4638,9.8603 8.4638,7.4814 8.4638,7.4814 C 8.4638,7.4814 6.5849,7.4814 6.5849,7.4814 C 6.5849,7.4814 6.5849,5.206 6.5849,5.206 C 6.5849,5.206 11.5674,5.206 11.5674,5.206 C 11.5674,5.206 11.5674,11.8945 11.5674,11.8945 z "
       id="path26" />
  </g>
  <g
     transform="matrix(1.3883002,0,0,1.3883002,99.382684,49.334815)"
     style="fill:#006633;fill-rule:nonzero;stroke:none;stroke-width:1pt;stroke-linecap:butt;stroke-linejoin:miter;stroke-dasharray:none"
     id="g28">
    <path
       d="M 0,0 C 0,0 8.4805,0 8.4805,0 C 8.4805,0 8.4805,2.2754 8.4805,2.2754 C 8.4805,2.2754 3.2061,2.2754 3.2061,2.2754 C 3.2061,2.2754 3.2061,4.7568 3.2061,4.7568 C 3.2061,4.7568 8.1875,4.7568 8.1875,4.7568 C 8.1875,4.7568 8.1875,7.0332 8.1875,7.0332 C 8.1875,7.0332 3.2061,7.0332 3.2061,7.0332 C 3.2061,7.0332 3.2061,9.7568 3.2061,9.7568 C 3.2061,9.7568 8.6709,9.7568 8.6709,9.7568 C 8.6709,9.7568 8.6709,12.0322 8.6709,12.0322 C 8.6709,12.0322 0,12.0322 0,12.0322 C 0,12.0322 0,0 0,0 z "
       id="path30" />
  </g>
  <g
     transform="matrix(1.3883002,0,0,1.3883002,117.8578,49.047437)"
     style="fill:#006633;fill-rule:nonzero;stroke:none;stroke-width:1pt;stroke-linecap:butt;stroke-linejoin:miter;stroke-dasharray:none"
     id="g32">
    <path
       d="M 6.0332,0 C 9.998,0 12.0664,2.3613 12.0664,6.2236 C 12.0664,10.0498 9.9638,12.4463 6.0332,12.4463 C 2.1025,12.4463 0,10.0498 0,6.2236 C 0,2.3613 2.0683,0 6.0332,0 z M 6.0332,10.0673 C 7.9814,10.0673 8.7568,8.205 8.7568,6.2236 C 8.7568,4.1377 7.9814,2.3789 6.0332,2.3789 C 4.0849,2.3789 3.3095,4.1377 3.3095,6.2236 C 3.3095,8.205 4.0849,10.0673 6.0332,10.0673 z "
       id="path34" />
  </g>
  <g
     transform="matrix(1.3883002,0,0,1.3883002,141.57344,49.334815)"
     style="fill:#006633;fill-rule:nonzero;stroke:none;stroke-width:1pt;stroke-linecap:butt;stroke-linejoin:miter;stroke-dasharray:none"
     id="g36">
    <path
       d="M 0,0 C 0,0 5.724,0 5.724,0 C 7.862,0 9.602,0.9648 9.602,3.0342 C 9.602,4.6367 8.844,5.706 7.292,6.0684 C 7.292,6.0684 7.292,6.1016 7.292,6.1016 C 8.327,6.3779 8.396,7.292 8.999,8.7568 C 8.999,8.7568 10.171,12.0322 10.171,12.0322 C 10.171,12.0322 6.827,12.0322 6.827,12.0322 C 6.827,12.0322 6.137,9.8603 6.137,9.8603 C 5.483,7.792 5.069,7.2744 3.879,7.2744 C 3.879,7.2744 3.207,7.2744 3.207,7.2744 C 3.207,7.2744 3.207,12.0322 3.207,12.0322 C 3.207,12.0322 0,12.0322 0,12.0322 C 0,12.0322 0,0 0,0 z M 3.207,4.999 C 3.207,4.999 4.051,4.999 4.051,4.999 C 5.086,4.999 6.396,4.9639 6.396,3.6025 C 6.396,2.4814 5.276,2.2754 4.051,2.2754 C 4.051,2.2754 3.207,2.2754 3.207,2.2754 C 3.207,2.2754 3.207,4.999 3.207,4.999 z "
       id="path38" />
  </g>
  <g
     transform="matrix(1.3883002,0,0,1.3883002,161.60523,49.047437)"
     style="fill:#006633;fill-rule:nonzero;stroke:none;stroke-width:1pt;stroke-linecap:butt;stroke-linejoin:miter;stroke-dasharray:none"
     id="g40">
    <path
       d="M 11.568,11.8945 C 9.533,12.4121 8.016,12.4463 6.912,12.4463 C 3.706,12.4463 0,10.8252 0,6.2754 C 0,1.7412 3.19,0 7.603,0 C 8.396,0 10.068,0.0859 11.239,0.5341 C 11.239,0.5341 10.981,3.1543 10.981,3.1543 C 9.982,2.5683 8.809,2.3789 8.05,2.3789 C 5.447,2.3789 3.31,3.4648 3.31,6.2754 C 3.31,8.6367 4.982,10.0673 7.326,10.0673 C 7.757,10.0673 8.171,9.998 8.464,9.8603 C 8.464,9.8603 8.464,7.4814 8.464,7.4814 C 8.464,7.4814 6.585,7.4814 6.585,7.4814 C 6.585,7.4814 6.585,5.206 6.585,5.206 C 6.585,5.206 11.568,5.206 11.568,5.206 C 11.568,5.206 11.568,11.8945 11.568,11.8945 z "
       id="path42" />
  </g>
  <g
     transform="matrix(1.3883002,0,0,1.3883002,185.56166,49.334815)"
     style="fill:#006633;fill-rule:nonzero;stroke:none;stroke-width:1pt;stroke-linecap:butt;stroke-linejoin:miter;stroke-dasharray:none"
     id="g44">
    <path
       d="M 0,0 C 0,0 8.481,0 8.481,0 C 8.481,0 8.481,2.2754 8.481,2.2754 C 8.481,2.2754 3.206,2.2754 3.206,2.2754 C 3.206,2.2754 3.206,4.7568 3.206,4.7568 C 3.206,4.7568 8.189,4.7568 8.189,4.7568 C 8.189,4.7568 8.189,7.0332 8.189,7.0332 C 8.189,7.0332 3.206,7.0332 3.206,7.0332 C 3.206,7.0332 3.206,9.7568 3.206,9.7568 C 3.206,9.7568 8.671,9.7568 8.671,9.7568 C 8.671,9.7568 8.671,12.0322 8.671,12.0322 C 8.671,12.0322 0,12.0322 0,12.0322 C 0,12.0322 0,0 0,0 z "
       id="path46" />
  </g>
  <g
     transform="matrix(1.3883002,0,0,1.3883002,2.9501428,117.97572)"
     style="fill:#006633;fill-rule:nonzero;stroke:none;stroke-width:1pt;stroke-linecap:butt;stroke-linejoin:miter;stroke-dasharray:none"
     id="g48">
    <path
       d="M 7.46879,5.2832 C 7.46879,7.6142 5.95507,8.664 3.73437,8.664 C 1.51367,8.664 0,7.6142 0,5.2832 C 0,5.2832 0,0 0,0 C 0,0 2.26953,0 2.26953,0 C 2.26953,0 2.26953,4.9053 2.26953,4.9053 C 2.26953,6.0283 2.57519,6.9795 3.73437,6.9795 C 4.89355,6.9795 5.19824,6.0283 5.19824,4.9053 C 5.19824,4.9053 5.19824,0 5.19824,0 C 5.19824,0 7.46879,0 7.46879,0 C 7.46879,0 7.46879,5.2832 7.46879,5.2832 z "
       id="path50" />
  </g>
  <g
     transform="matrix(1.3883002,0,0,1.3883002,25.617175,117.97572)"
     style="fill:#006633;fill-rule:nonzero;stroke:none;stroke-width:1pt;stroke-linecap:butt;stroke-linejoin:miter;stroke-dasharray:none"
     id="g52">
    <path
       d="M 0,0 C 0,0 2.8925,0 2.8925,0 C 2.8925,0 5.7714,5.7842 5.7714,5.7842 C 5.7714,5.7842 5.7959,5.7842 5.7959,5.7842 C 5.7959,5.7842 5.7597,0 5.7597,0 C 5.7597,0 7.8339,0 7.8339,0 C 7.8339,0 7.8339,8.5176 7.8339,8.5176 C 7.8339,8.5176 5.0156,8.5176 5.0156,8.5176 C 5.0156,8.5176 2.038,2.6963 2.038,2.6963 C 2.038,2.6963 2.0136,2.6963 2.0136,2.6963 C 2.0136,2.6963 2.0869,8.5176 2.0869,8.5176 C 2.0869,8.5176 0,8.5176 0,8.5176 C 0,8.5176 0,0 0,0 z "
       id="path54" />
  </g>
  <g
     transform="matrix(1.3883002,0,0,1.3883002,50.046536,117.97572)"
     style="fill:#006633;fill-rule:nonzero;stroke:none;stroke-width:1pt;stroke-linecap:butt;stroke-linejoin:miter;stroke-dasharray:none"
     id="g56">
    <path
       d="M 0,0 C 0,0 2.2705,0 2.2705,0 C 2.2705,0 2.2705,8.5176 2.2705,8.5176 C 2.2705,8.5176 0,8.5176 0,8.5176 C 0,8.5176 0,0 0,0 z "
       id="path58" />
  </g>
  <g
     transform="matrix(1.3883002,0,0,1.3883002,65.987693,117.97572)"
     style="fill:#006633;fill-rule:nonzero;stroke:none;stroke-width:1pt;stroke-linecap:butt;stroke-linejoin:miter;stroke-dasharray:none"
     id="g60">
    <path
       d="M 0,0 C 0,0 2.4169,0 2.4169,0 C 2.4169,0 4.3086,6.6865 4.3086,6.6865 C 4.3086,6.6865 4.333,6.6865 4.333,6.6865 C 4.333,6.6865 6.2363,0 6.2363,0 C 6.2363,0 8.5673,0 8.5673,0 C 8.5673,0 5.663,8.5176 5.663,8.5176 C 5.663,8.5176 2.8554,8.5176 2.8554,8.5176 C 2.8554,8.5176 0,0 0,0 z "
       id="path62" />
  </g>
  <g
     transform="matrix(1.3883002,0,0,1.3883002,89.621281,117.97572)"
     style="fill:#006633;fill-rule:nonzero;stroke:none;stroke-width:1pt;stroke-linecap:butt;stroke-linejoin:miter;stroke-dasharray:none"
     id="g64">
    <path
       d="M 0,0 C 0,0 6.0039,0 6.0039,0 C 6.0039,0 6.0039,1.6103 6.0039,1.6103 C 6.0039,1.6103 2.2695,1.6103 2.2695,1.6103 C 2.2695,1.6103 2.2695,3.3681 2.2695,3.3681 C 2.2695,3.3681 5.7969,3.3681 5.7969,3.3681 C 5.7969,3.3681 5.7969,4.9785 5.7969,4.9785 C 5.7969,4.9785 2.2695,4.9785 2.2695,4.9785 C 2.2695,4.9785 2.2695,6.9062 2.2695,6.9062 C 2.2695,6.9062 6.1377,6.9062 6.1377,6.9062 C 6.1377,6.9062 6.1377,8.5176 6.1377,8.5176 C 6.1377,8.5176 0,8.5176 0,8.5176 C 0,8.5176 0,0 0,0 z "
       id="path66" />
  </g>
  <g
     transform="matrix(1.3883002,0,0,1.3883002,110.5949,117.97572)"
     style="fill:#006633;fill-rule:nonzero;stroke:none;stroke-width:1pt;stroke-linecap:butt;stroke-linejoin:miter;stroke-dasharray:none"
     id="g68">
    <path
       d="M 0,0 C 0,0 4.0508,0 4.0508,0 C 5.5645,0 6.7969,0.6836 6.7969,2.1474 C 6.7969,3.2822 6.2598,4.039 5.1611,4.2949 C 5.1611,4.2949 5.1611,4.3193 5.1611,4.3193 C 5.8936,4.5146 5.9424,5.1611 6.3692,6.1992 C 6.3692,6.1992 7.1992,8.5176 7.1992,8.5176 C 7.1992,8.5176 4.832,8.5176 4.832,8.5176 C 4.832,8.5176 4.3438,6.9795 4.3438,6.9795 C 3.8799,5.5156 3.5869,5.1494 2.7451,5.1494 C 2.7451,5.1494 2.2695,5.1494 2.2695,5.1494 C 2.2695,5.1494 2.2695,8.5176 2.2695,8.5176 C 2.2695,8.5176 0,8.5176 0,8.5176 C 0,8.5176 0,0 0,0 z M 2.2695,3.539 C 2.2695,3.539 2.8672,3.539 2.8672,3.539 C 3.5996,3.539 4.5264,3.5136 4.5264,2.5498 C 4.5264,1.7568 3.7334,1.6103 2.8672,1.6103 C 2.8672,1.6103 2.2695,1.6103 2.2695,1.6103 C 2.2695,1.6103 2.2695,3.539 2.2695,3.539 z "
       id="path70" />
  </g>
  <g
     transform="matrix(1.3883002,0,0,1.3883002,131.65266,117.77229)"
     style="fill:#006633;fill-rule:nonzero;stroke:none;stroke-width:1pt;stroke-linecap:butt;stroke-linejoin:miter;stroke-dasharray:none"
     id="g72">
    <path
       d="M 0.2803,6.5644 C 0.8662,6.8818 1.6836,7.126 2.623,7.126 C 3.3428,7.126 4.0264,6.9795 4.0264,6.2969 C 4.0264,4.71 0,5.71 0,2.6103 C 0,0.5605 2.001,0 3.709,0 C 4.5273,0 5.332,0.1221 5.906,0.3174 C 5.906,0.3174 5.76,2.0742 5.76,2.0742 C 5.174,1.8057 4.5146,1.6836 3.8681,1.6836 C 3.2939,1.6836 2.3428,1.7324 2.3428,2.4766 C 2.3428,3.8555 6.369,2.9287 6.369,6.0039 C 6.369,8.2119 4.5146,8.8105 2.623,8.8105 C 1.8301,8.8105 0.8418,8.6885 0.0849,8.4434 C 0.0849,8.4434 0.2803,6.5644 0.2803,6.5644 z "
       id="path74" />
  </g>
  <g
     transform="matrix(1.3883002,0,0,1.3883002,152.33693,117.97572)"
     style="fill:#006633;fill-rule:nonzero;stroke:none;stroke-width:1pt;stroke-linecap:butt;stroke-linejoin:miter;stroke-dasharray:none"
     id="g76">
    <path
       d="M 0,0 C 0,0 2.27,0 2.27,0 C 2.27,0 2.27,8.5176 2.27,8.5176 C 2.27,8.5176 0,8.5176 0,8.5176 C 0,8.5176 0,0 0,0 z "
       id="path78" />
  </g>
  <g
     transform="matrix(1.3883002,0,0,1.3883002,167.83727,117.97572)"
     style="fill:#006633;fill-rule:nonzero;stroke:none;stroke-width:1pt;stroke-linecap:butt;stroke-linejoin:miter;stroke-dasharray:none"
     id="g80">
    <path
       d="M 2.1,1.6836 C 2.1,1.6836 0,1.6836 0,1.6836 C 0,1.6836 0,0 0,0 C 0,0 6.468,0 6.468,0 C 6.468,0 6.468,1.6836 6.468,1.6836 C 6.468,1.6836 4.37,1.6836 4.37,1.6836 C 4.37,1.6836 4.37,8.5176 4.37,8.5176 C 4.37,8.5176 2.1,8.5176 2.1,8.5176 C 2.1,8.5176 2.1,1.6836 2.1,1.6836 z "
       id="path82" />
  </g>
  <g
     transform="matrix(1.3883002,0,0,1.3883002,185.82964,117.97572)"
     style="fill:#006633;fill-rule:nonzero;stroke:none;stroke-width:1pt;stroke-linecap:butt;stroke-linejoin:miter;stroke-dasharray:none"
     id="g84">
    <path
       d="M 3.149,5.3076 C 3.149,5.3076 0,0 0,0 C 0,0 2.612,0 2.612,0 C 2.612,0 4.284,3.417 4.284,3.417 C 4.284,3.417 5.931,0 5.931,0 C 5.931,0 8.542,0 8.542,0 C 8.542,0 5.418,5.3076 5.418,5.3076 C 5.418,5.3076 5.418,8.5176 5.418,8.5176 C 5.418,8.5176 3.149,8.5176 3.149,8.5176 C 3.149,8.5176 3.149,5.3076 3.149,5.3076 z "
       id="path86" />
  </g>
</svg>
